<?xml version="1.0" encoding="UTF-8" standalone="no"?>
<!DOCTYPE svg PUBLIC "-//W3C//DTD SVG 1.1//EN" "http://www.w3.org/Graphics/SVG/1.1/DTD/svg11.dtd">
<svg width="100%" height="100%" viewBox="0 0 21 19" version="1.1" xmlns="http://www.w3.org/2000/svg" xmlns:xlink="http://www.w3.org/1999/xlink" xml:space="preserve" xmlns:serif="http://www.serif.com/" style="fill-rule:evenodd;clip-rule:evenodd;stroke-linejoin:round;stroke-miterlimit:2;">
    <g transform="matrix(1,0,0,1,-1327,-92.3331)">
        <g transform="matrix(0.833333,0,0,1,-152,-852.585)">
            <g transform="matrix(0.0468767,0,0,0.0390639,1774.8,944.083)">
                <path d="M490.964,106.805L90.642,106.805L84.692,40.513C83.718,29.672 74.633,21.365 63.749,21.365L21.027,21.365C9.414,21.365 0,30.779 0,42.392C0,54.005 9.414,63.419 21.027,63.419L44.525,63.419C57.367,206.485 24.178,-163.287 68.709,332.854C70.425,352.273 80.918,373.345 98.993,387.663C66.404,429.281 96.18,490.635 149.191,490.635C193.19,490.635 224.223,446.752 209.134,405.191L324.218,405.191C309.149,446.699 340.114,490.635 384.161,490.635C419.312,490.635 447.91,462.037 447.91,426.886C447.91,391.735 419.312,363.137 384.161,363.137L149.334,363.137C133.361,363.137 119.442,353.501 113.435,339.461L449.474,319.711C458.648,319.173 466.409,312.736 468.639,303.821L511.364,132.932C514.676,119.681 504.646,106.805 490.964,106.805ZM149.191,448.581C137.23,448.581 127.498,438.848 127.498,426.886C127.498,414.923 137.23,405.191 149.191,405.191C161.154,405.191 170.886,414.923 170.886,426.886C170.886,438.848 161.154,448.581 149.191,448.581ZM384.16,448.581C372.198,448.581 362.465,438.848 362.465,426.886C362.465,414.923 372.198,405.191 384.16,405.191C396.122,405.191 405.855,414.923 405.855,426.886C405.855,438.848 396.122,448.581 384.16,448.581ZM431.587,278.637L107.774,297.666L94.417,148.858L464.033,148.858L431.587,278.637Z" style="fill-rule:nonzero;"/>
            </g>
        </g>
    </g>
</svg>
